# xmcd
#
# Track frame offsets: 
#        150
#        20357
#        38967
#        59342
#        79830
#        102205
#        122467
#        140455
#        154735
#        172860
#        194610
#
# Disc length: 2828 seconds
#
# Revision: 2
# Processed by: cddbd v1.5.2PL0 Copyright (c) Steve Scherf et al.
# Submitted via: ExactAudioCopy v0.95b4
#
DISCID=890b0a0b
DTITLE=Rick Parker - Wicked World
DYEAR=1991
DGENRE=Rock
TTITLE0=Salesgirl Blues
TTITLE1=Amaze Me
TTITLE2=Temptation
TTITLE3=Cause You're Mine
TTITLE4=Still With Me
TTITLE5=Wicked World
TTITLE6=Sally's House
TTITLE7=Love Yourself
TTITLE8=Sugar Star
TTITLE9=Moonlight Parade
TTITLE10=Little Storm
EXTD=
EXTT0=
EXTT1=
EXTT2=
EXTT3=
EXTT4=
EXTT5=
EXTT6=
EXTT7=
EXTT8=
EXTT9=
EXTT10=
PLAYORDER=
